<?xml version="1.0" encoding="utf-8"?>
<!-- Generator: Adobe Illustrator 25.0.0, SVG Export Plug-In . SVG Version: 6.00 Build 0)  -->
<svg version="1.1" id="Layer_1" xmlns="http://www.w3.org/2000/svg" xmlns:xlink="http://www.w3.org/1999/xlink" x="0px" y="0px"
	 viewBox="0 0 419.9 62.5" style="enable-background:new 0 0 419.9 62.5;" xml:space="preserve">
<g>
	<path d="M120.3,8.2l0.1,1.2c-4.2,0.3-5.3,1.4-5.3,5v40.6h-1.4L78.1,16.2v29.2c0,6.1,1.4,7.8,6.6,7.8H86v1.3h-1.5
		c-1.1,0-6.5-0.3-7.8-0.3c-0.7,0-5.7,0.3-6.8,0.3h-1.3v-1.3c5.3-0.5,6.4-1.3,6.4-5.1L75,13c-2.1-2.2-4.4-3.5-6-3.5h-1.4V8.2h1.2
		l7.6,0.3c1,0,4-0.3,4.6-0.3h1.3l29.9,32.6V15.1c0-4.1-1.8-5.7-6.3-5.7h-1.3V8.2h1.4l7.4,0.3l6.1-0.3H120.3z M356.3,30.4l-2.3,9
		h-0.1l-2.3-9l-6.3-21.6h-13.9l14.8,46.1h15.1l14.8-46.1h-13.7L356.3,30.4z M396.8,43.3v-7.2h18.7V26h-18.7v-6.2h22.4v-11h-35.9
		v46.1h36.5V43.3H396.8z M222.1,8.2h-0.6l-5.3,0.3l-5.5-0.3h-0.4v1.2h1.4c2.4,0,3.5,0.9,3.5,3.1c0,1.3-0.5,3.3-1.5,6.4l-8.2,24.5
		l-10.4-28.9c-0.5-1.3-0.8-2.5-0.8-3.2c0-1.3,1.3-2,3.8-2h1.9V8.2h-1.9l-8,0.3l-8.1-0.3h-1.3v1.2c3.8,0.1,5.3,1.3,7,6.1l4,11.1
		l-6.1,16.6l-10.8-29.1c-0.4-1.1-0.6-2.1-0.6-2.8c0-1.3,0.9-1.9,3.2-2V8.2h-1.4l-6.3,0.3l-6.2-0.3h-1.3v1.1c2,0.4,3.1,1.7,4.3,4.8
		l15.3,41h2.1l9.2-24.4l8.9,24.4h2.2l13.2-39c1.6-4.8,2.6-6.2,4.5-6.8V8.2z M149.3,51.7h-7.8c-2.7,0-4-1.3-4-4V31.4h7.5
		c5.5,0,7.8,1.7,8.4,6.1h1.3V23.4l-1.4-0.1c-0.5,3.7-2.6,5.4-6.3,5.4h-9.5V11h11c5.5,0,7.9,2.1,8.1,7.4h1.2l-0.2-10.1h-3.1
		c-2.3,0-13.2,0.3-14.9,0.3c-0.1,0-11.5-0.3-13.7-0.3H123v1.2h1.2c3.7,0,4.9,0.9,4.9,4l0,35.7c0,3.1-1.2,4-4.9,4.1h-1.3v1.3h2
		c5.6-0.1,11.2-0.2,16.8-0.3c3.6,0,14.4,0.3,16.7,0.3l3.3-9.9h-1.4C158.1,49.4,154.4,51.7,149.3,51.7z M239.3,25.1
		c-7.5-3.4-9.6-5.4-9.6-8.9c0-4,3.7-6.7,9.3-6.7c4.4,0,7.9,1.4,10.1,4c1,1.3,1.5,2.3,2.2,4.7h1.1l-0.2-9.9h-1.4
		c-0.2,0.5-0.5,0.7-1.2,0.7c-0.7,0-2-0.2-3.2-0.5c-3.1-0.8-6-1.2-8.7-1.2c-8.9,0-14.7,4.8-14.7,12c0,3.1,1,5.5,3.4,8.1
		c1.6,1.6,3.6,3.4,11.4,7.2c8.1,3.8,10.3,5.9,10.3,9.6c0,5.1-4.5,8.6-11.3,8.6c-3.9,0-7.4-1-10.1-3.1c-2.1-1.6-3.2-3-4.5-6l-1.2,0.4
		c0.6,2.3,1.3,5.7,1.9,9.3l0.2,1.1h1.3c0.6-0.7,0.9-0.9,1.9-0.9c0.5,0,1.7,0.2,2.8,0.4c3.1,0.7,5.7,1,8.3,1
		c10.2,0,17.2-5.7,17.2-14.2C254.8,33.5,249,29.5,239.3,25.1z M280.3,8.8h-13.5v46.1H300V43.3h-19.7V8.8z M310.4,54.9h13.5V8.8
		h-13.5V54.9z M12.9,27.4c-2.1,0-3.8,1.7-3.8,3.8s1.7,3.8,3.8,3.8s3.8-1.7,3.8-3.8S15,27.4,12.9,27.4z M31.3,27.4
		c-2.1,0-3.8,1.7-3.8,3.8s1.7,3.8,3.8,3.8s3.8-1.7,3.8-3.8S33.4,27.4,31.3,27.4z M62.5,31.3c0,17.3-14,31.3-31.3,31.3S0,48.5,0,31.3
		C0,14,14,0,31.3,0S62.5,14,62.5,31.3z M21.5,31.3c0-4.8-3.9-8.6-8.6-8.6c-4.8,0-8.6,3.9-8.6,8.6c0,4.8,3.9,8.6,8.6,8.6
		c2.5,0,3.8-1.6,3.8-1.6v1.5h4.8V31.3z M39.9,31.3c0-4.8-3.9-8.6-8.6-8.6c-2.3,0-3.8,1.3-3.8,1.3l0-5.5h-4.8v12.9
		c0,4.8,3.9,8.6,8.6,8.6C36,39.9,39.9,36,39.9,31.3z M49.6,22.6c-4.8,0-8.6,3.9-8.6,8.6c0,4.8,3.9,8.6,8.6,8.6c4.4,0,8-3.3,8.6-7.5
		h-4.9c-0.5,1.6-1.9,2.7-3.7,2.7c-2.1,0-3.8-1.7-3.8-3.8s1.7-3.8,3.8-3.8c1.7,0,3.2,1.2,3.7,2.7h4.9C57.7,25.9,54,22.6,49.6,22.6z"
		/>
</g>
</svg>
